<svg xmlns="http://www.w3.org/2000/svg" width="256" height="256" viewBox="0 0 100 100"><rect width="100" height="100" rx="50" fill="#53ccf7"></rect><path d="M17.06 78.65L17.06 78.65Q13.86 78.65 12.65 77.23Q11.45 75.81 11.45 73.61L11.45 73.61Q11.45 71.55 12.30 68.71Q13.15 65.87 14.07 63.24L14.07 63.24Q15.28 59.76 16.98 55.08Q18.69 50.39 20.64 45.28Q22.59 40.17 24.62 35.20Q26.64 30.23 28.56 26.18L28.56 26.18Q23.66 26.25 20.36 26.39Q17.06 26.53 14.43 26.78Q11.80 27.03 8.68 27.60L8.68 27.60Q8.89 25.19 11.16 23.84Q13.43 22.49 17.27 21.92Q21.10 21.35 26.00 21.35L26.00 21.35Q30.90 21.35 34.77 21.74Q38.64 22.13 42.05 22.49Q45.46 22.84 48.86 22.91L48.86 22.91Q46.45 25.11 43.33 25.68Q40.20 26.25 36.72 26.25L36.72 26.25Q35.94 26.25 35.09 26.22Q34.24 26.18 33.39 26.18Q32.53 26.18 31.68 26.18L31.68 26.18Q29.41 31.86 26.46 40.52Q23.52 49.18 20.53 60.05L20.53 60.05Q19.54 63.81 18.72 66.79Q17.91 69.77 17.45 72.26Q16.98 74.74 16.98 77.09L16.98 77.09Q16.98 77.44 16.98 77.87Q16.98 78.29 17.06 78.65ZM37.36 78.65L37.36 78.65Q37.79 77.65 39.71 73.43Q41.62 69.21 44.71 62.43Q47.80 55.64 51.67 47.02Q55.54 38.39 59.87 28.74L59.87 28.74Q60.08 28.24 60.33 27.42Q60.58 26.61 60.58 25.82L60.58 25.82Q60.58 25.04 60.12 24.51Q59.66 23.98 58.17 23.98L58.17 23.98Q55.18 23.98 53.23 26.00Q51.28 28.03 50.32 31.01Q49.36 33.99 49.36 36.90L49.36 36.90Q49.36 37.61 49.40 38.11Q49.43 38.60 49.50 39.10L49.50 39.10Q48.15 39.10 47.34 38.14Q46.52 37.18 46.13 35.80Q45.74 34.42 45.74 33.28L45.74 33.28Q45.74 30.94 47.02 28.81Q48.30 26.68 50.32 24.97Q52.34 23.27 54.79 22.31Q57.24 21.35 59.59 21.35L59.59 21.35Q61.93 21.35 63.53 22.66Q65.12 23.98 65.94 27.39Q66.76 30.79 66.76 37.26L66.76 37.26Q66.76 41.66 66.44 46.63Q66.12 51.60 65.76 56.43Q65.41 61.25 65.27 65.23L65.27 65.23Q66.40 60.90 68.50 56.00Q70.59 51.10 73.11 46.24Q75.63 41.37 78.12 37.11Q80.60 32.85 82.59 29.73Q84.58 26.61 85.50 25.19L85.50 25.19Q86.49 23.77 87.20 23.02Q87.91 22.27 89.05 22.27L89.05 22.27Q90.04 22.27 91.32 22.77L91.32 22.77Q90.83 24.05 89.94 26.57Q89.05 29.09 88.13 32.71L88.13 32.71Q86.99 37.04 85.86 42.55Q84.72 48.05 83.76 53.73Q82.80 59.41 82.23 64.41Q81.67 69.42 81.67 72.83L81.67 72.83Q81.67 74.39 81.81 75.24Q81.95 76.09 82.20 76.77Q82.45 77.44 82.73 78.65L82.73 78.65Q80.32 78.65 79.04 77.87Q77.76 77.09 77.34 75.35Q76.91 73.61 76.91 70.70L76.91 70.70Q76.91 62.25 79.07 52.56Q81.24 42.86 84.01 32.43L84.01 32.43Q81.95 35.05 79.71 39.07Q77.48 43.08 75.24 47.73Q73.00 52.38 70.98 57.03Q68.96 61.68 67.40 65.66Q65.83 69.63 64.98 72.26L64.98 72.26Q64.56 72.40 64.41 72.47Q64.27 72.54 63.92 72.54L63.92 72.54Q62.00 72.54 61.40 70.27Q60.79 68.00 60.79 63.88L60.79 63.88Q60.79 60.97 60.97 56.96Q61.15 52.95 61.36 48.69Q61.57 44.43 61.75 40.49Q61.93 36.55 61.93 33.71L61.93 33.71Q61.93 32.29 61.89 31.36Q61.86 30.44 61.79 29.73L61.79 29.73Q56.11 42.94 52.27 52.27Q48.44 61.61 45.85 67.43Q43.26 73.25 41.27 75.95Q39.28 78.65 37.36 78.65Z" fill="#fff"></path></svg>